<svg width="701" height="117" xmlns="http://www.w3.org/2000/svg" xmlns:xlink="http://www.w3.org/1999/xlink" overflow="hidden"><defs><clipPath id="clip0"><rect x="290" y="466" width="701" height="117"/></clipPath></defs><g clip-path="url(#clip0)" transform="translate(-290 -466)"><path d="M291.5 486.667C291.5 476.081 300.081 467.5 310.667 467.5L970.333 467.5C980.919 467.5 989.5 476.081 989.5 486.667L989.5 563.333C989.5 573.919 980.919 582.5 970.333 582.5L310.667 582.5C300.081 582.5 291.5 573.919 291.5 563.333Z" stroke="#A5A5A5" stroke-width="1.33333" stroke-miterlimit="8" fill="#FFFFFF" fill-rule="evenodd"/><text font-family="Calibri,Calibri_MSFontService,sans-serif" font-weight="400" font-size="24" transform="translate(332.153 519)">This is why<tspan font-weight="700" x="110.72" y="0">my</tspan>/<tspan fill="#0D990D" x="150.453" y="0">O</tspan><tspan fill="#0D990D" font-size="19" x="166.287" y="0">RG</tspan><tspan fill="#0D990D" x="188.773" y="0">M</tspan><tspan fill="#0D990D" font-size="19" x="209.273" y="0">EMBER</tspan><tspan font-family="Cambria Math,Cambria Math_MSFontService,sans-serif" x="265.273" y="0">↝</tspan><tspan fill="#0D990D" x="286.44" y="0">G</tspan><tspan fill="#0D990D" font-size="19" x="301.607" y="0">ESTALT</tspan><tspan x="359.88" y="0">employer has just finished </tspan><tspan x="29.2667" y="28">updating 50 k users </tspan><tspan font-weight="700" x="224.467" y="28">from</tspan><tspan x="272.673" y="28">/</tspan><tspan fill="#0D990D" x="282.007" y="28">S</tspan><tspan fill="#0D990D" font-size="19" x="293.007" y="28">OURCE</tspan><tspan x="353.34" y="28">XP </tspan><tspan font-weight="700" x="383.673" y="28">to</tspan><tspan x="404.607" y="28">/</tspan><tspan fill="#0D990D" x="413.94" y="28">G</tspan><tspan fill="#0D990D" font-size="19" x="429.107" y="28">OAL</tspan><tspan x="466.227" y="28">Windows 7 .</tspan></text></g></svg>